<svg data-v-d3f97b9e="" xmlns="http://www.w3.org/2000/svg" viewBox="0 0 510 90"><!----><!----><!----><g data-v-d3f97b9e="" id="6b1bf81e-ccb8-414b-9237-1e7f85d3e29d" fill="#ffffff" transform="matrix(5.71973320392212,0,0,5.71973320392212,106.05338965181804,0.5862729120486705)"><path d="M3.71 13.01L3.71 13.01Q2.24 13.01 1.46 12.50L1.46 12.50L1.46 12.50Q0.69 11.98 0.69 10.99L0.69 10.99L0.69 10.99Q0.69 10.49 1.03 10.16L1.03 10.16L1.03 10.16Q1.37 9.83 1.92 9.83L1.92 9.83L1.92 9.83Q2.24 9.84 2.41 9.99L2.41 9.99L2.41 9.99Q2.58 10.14 2.58 10.26L2.58 10.26L2.58 10.26Q2.58 10.28 2.44 10.36L2.44 10.36L2.44 10.36Q2.30 10.44 2.18 10.61L2.18 10.61L2.18 10.61Q2.07 10.78 2.07 11.07L2.07 11.07L2.07 11.07Q2.07 11.73 2.47 12.09L2.47 12.09L2.47 12.09Q2.87 12.45 3.71 12.45L3.71 12.45L3.71 12.45Q4.28 12.45 4.72 12.22L4.72 12.22L4.72 12.22Q5.15 12.00 5.38 11.63L5.38 11.63L5.38 11.63Q5.61 11.26 5.61 10.85L5.61 10.85L5.61 10.85Q5.61 10.35 5.33 9.98L5.33 9.98L5.33 9.98Q5.04 9.62 4.62 9.37L4.62 9.37L4.62 9.37Q4.20 9.13 3.47 8.81L3.47 8.81L3.47 8.81Q2.63 8.43 2.11 8.12L2.11 8.12L2.11 8.12Q1.60 7.81 1.23 7.30L1.23 7.30L1.23 7.30Q0.87 6.79 0.87 6.03L0.87 6.03L0.87 6.03Q0.87 4.82 1.70 4.21L1.70 4.21L1.70 4.21Q2.53 3.61 3.89 3.61L3.89 3.61L3.89 3.61Q4.96 3.61 5.75 4.06L5.75 4.06L5.75 4.06Q6.54 4.51 6.54 5.38L6.54 5.38L6.54 5.38Q6.54 5.88 6.20 6.21L6.20 6.21L6.20 6.21Q5.85 6.54 5.31 6.54L5.31 6.54L5.31 6.54Q4.98 6.52 4.82 6.38L4.82 6.38L4.82 6.38Q4.65 6.23 4.65 6.10L4.65 6.10L4.65 6.10Q4.65 6.09 4.84 6.01L4.84 6.01L4.84 6.01Q5.03 5.92 5.17 5.75L5.17 5.75L5.17 5.75Q5.32 5.59 5.32 5.29L5.32 5.29L5.32 5.29Q5.32 4.77 4.92 4.48L4.92 4.48L4.92 4.48Q4.52 4.19 3.91 4.19L3.91 4.19L3.91 4.19Q3.05 4.19 2.61 4.59L2.61 4.59L2.61 4.59Q2.17 4.98 2.17 5.57L2.17 5.57L2.17 5.57Q2.17 6.06 2.44 6.39L2.44 6.39L2.44 6.39Q2.70 6.72 3.29 7.04L3.29 7.04L3.29 7.04Q3.77 7.29 4.33 7.55L4.33 7.55L4.33 7.55Q5.22 7.95 5.75 8.29L5.75 8.29L5.75 8.29Q6.27 8.62 6.63 9.17L6.63 9.17L6.63 9.17Q6.99 9.72 6.99 10.53L6.99 10.53L6.99 10.53Q6.99 11.23 6.54 11.80L6.54 11.80L6.54 11.80Q6.10 12.36 5.36 12.68L5.36 12.68L5.36 12.68Q4.61 13.01 3.71 13.01L3.71 13.01ZM11.48 12.89L11.48 12.89Q10.43 12.89 9.70 12.45L9.70 12.45L9.70 12.45Q8.96 12.00 8.58 11.23L8.58 11.23L8.58 11.23Q8.20 10.46 8.20 9.52L8.20 9.52L8.20 9.52Q8.20 8.69 8.59 7.93L8.59 7.93L8.59 7.93Q8.97 7.17 9.69 6.69L9.69 6.69L9.69 6.69Q10.40 6.22 11.33 6.22L11.33 6.22L11.33 6.22Q12.57 6.22 13.24 6.85L13.24 6.85L13.24 6.85Q13.92 7.49 14.01 8.57L14.01 8.57L14.01 8.57Q14.01 9.03 13.76 9.20L13.76 9.20L13.76 9.20Q13.51 9.37 13.03 9.37L13.03 9.37L9.63 9.37L9.63 9.37Q9.63 10.67 10.17 11.43L10.17 11.43L10.17 11.43Q10.71 12.19 11.84 12.19L11.84 12.19L11.84 12.19Q12.45 12.19 12.87 11.94L12.87 11.94L12.87 11.94Q13.29 11.68 13.66 11.06L13.66 11.06L13.66 11.06Q13.73 10.99 13.80 10.99L13.80 10.99L13.80 10.99Q13.90 10.99 13.97 11.05L13.97 11.05L13.97 11.05Q14.11 11.13 14.11 11.30L14.11 11.30L14.11 11.30Q14.11 11.38 14.08 11.42L14.08 11.42L14.08 11.42Q13.65 12.12 12.98 12.51L12.98 12.51L12.98 12.51Q12.32 12.89 11.48 12.89L11.48 12.89ZM9.63 8.83L11.91 8.83L11.91 8.83Q12.63 8.83 12.67 8.25L12.67 8.25L12.67 8.25Q12.67 7.60 12.32 7.15L12.32 7.15L12.32 7.15Q11.97 6.71 11.33 6.71L11.33 6.71L11.33 6.71Q10.61 6.71 10.15 7.27L10.15 7.27L10.15 7.27Q9.69 7.84 9.63 8.83L9.63 8.83ZM15.20 12.77L15.20 12.77Q15.11 12.77 15.04 12.68L15.04 12.68L15.04 12.68Q14.98 12.60 14.98 12.49L14.98 12.49L14.98 12.49Q14.99 12.31 15.06 12.27L15.06 12.27L15.06 12.27Q15.12 12.24 15.30 12.24L15.30 12.24L15.30 12.24Q15.67 12.24 15.82 12.11L15.82 12.11L15.82 12.11Q15.97 11.98 16.00 11.82L16.00 11.82L16.00 11.82Q16.03 11.65 16.03 11.28L16.03 11.28L16.03 4.45L16.03 4.45Q16.03 4.09 16.01 3.92L16.01 3.92L16.01 3.92Q15.99 3.75 15.83 3.63L15.83 3.63L15.83 3.63Q15.68 3.50 15.32 3.50L15.32 3.50L15.32 3.50Q15.15 3.50 15.06 3.45L15.06 3.45L15.06 3.45Q14.98 3.40 14.98 3.22L14.98 3.22L14.98 3.22Q14.98 3.14 15.04 3.06L15.04 3.06L15.04 3.06Q15.09 2.98 15.20 2.97L15.20 2.97L15.20 2.97Q16.09 2.84 16.72 2.60L16.72 2.60L16.72 2.60Q16.91 2.53 17.04 2.52L17.04 2.52L17.08 2.52L17.08 2.52Q17.30 2.52 17.30 2.79L17.30 2.79L17.30 11.28L17.30 11.28Q17.30 11.65 17.33 11.82L17.33 11.82L17.33 11.82Q17.36 11.98 17.51 12.11L17.51 12.11L17.51 12.11Q17.67 12.24 18.03 12.24L18.03 12.24L18.12 12.24L18.12 12.24Q18.23 12.24 18.28 12.28L18.28 12.28L18.28 12.28Q18.34 12.32 18.35 12.49L18.35 12.49L18.35 12.49Q18.35 12.60 18.30 12.68L18.30 12.68L18.30 12.68Q18.24 12.77 18.13 12.77L18.13 12.77L18.13 12.77Q17.32 12.73 16.66 12.73L16.66 12.73L16.66 12.73Q16.03 12.73 15.20 12.77L15.20 12.77ZM22.51 12.89L22.51 12.89Q21.46 12.89 20.73 12.45L20.73 12.45L20.73 12.45Q19.99 12.00 19.61 11.23L19.61 11.23L19.61 11.23Q19.24 10.46 19.24 9.52L19.24 9.52L19.24 9.52Q19.24 8.69 19.62 7.93L19.62 7.93L19.62 7.93Q20.01 7.17 20.72 6.69L20.72 6.69L20.72 6.69Q21.43 6.22 22.36 6.22L22.36 6.22L22.36 6.22Q23.60 6.22 24.28 6.85L24.28 6.85L24.28 6.85Q24.95 7.49 25.05 8.57L25.05 8.57L25.05 8.57Q25.05 9.03 24.79 9.20L24.79 9.20L24.79 9.20Q24.54 9.37 24.07 9.37L24.07 9.37L20.66 9.37L20.66 9.37Q20.66 10.67 21.20 11.43L21.20 11.43L21.20 11.43Q21.74 12.19 22.88 12.19L22.88 12.19L22.88 12.19Q23.48 12.19 23.90 11.94L23.90 11.94L23.90 11.94Q24.32 11.68 24.70 11.06L24.70 11.06L24.70 11.06Q24.77 10.99 24.84 10.99L24.84 10.99L24.84 10.99Q24.93 10.99 25.00 11.05L25.00 11.05L25.00 11.05Q25.14 11.13 25.14 11.30L25.14 11.30L25.14 11.30Q25.14 11.38 25.12 11.42L25.12 11.42L25.12 11.42Q24.68 12.12 24.02 12.51L24.02 12.51L24.02 12.51Q23.35 12.89 22.51 12.89L22.51 12.89ZM20.66 8.83L22.95 8.83L22.95 8.83Q23.66 8.83 23.70 8.25L23.70 8.25L23.70 8.25Q23.70 7.60 23.35 7.15L23.35 7.15L23.35 7.15Q23.00 6.71 22.36 6.71L22.36 6.71L22.36 6.71Q21.64 6.71 21.18 7.27L21.18 7.27L21.18 7.27Q20.72 7.84 20.66 8.83L20.66 8.83ZM29.32 12.89L29.32 12.89Q27.89 12.89 27.08 11.98L27.08 11.98L27.08 11.98Q26.26 11.07 26.26 9.55L26.26 9.55L26.26 9.55Q26.29 8.60 26.73 7.85L26.73 7.85L26.73 7.85Q27.17 7.10 27.92 6.67L27.92 6.67L27.92 6.67Q28.66 6.24 29.55 6.22L29.55 6.22L29.55 6.22Q30.45 6.22 31.10 6.55L31.10 6.55L31.10 6.55Q31.75 6.89 31.75 7.67L31.75 7.67L31.75 7.67Q31.75 8.11 31.49 8.44L31.49 8.44L31.49 8.44Q31.23 8.76 30.80 8.76L30.80 8.76L30.80 8.76Q30.53 8.76 30.35 8.62L30.35 8.62L30.35 8.62Q30.16 8.48 30.16 8.39L30.16 8.39L30.16 8.39Q30.16 8.37 30.28 8.26L30.28 8.26L30.28 8.26Q30.41 8.15 30.51 7.99L30.51 7.99L30.51 7.99Q30.62 7.83 30.62 7.62L30.62 7.62L30.62 7.62Q30.62 7.18 30.30 6.96L30.30 6.96L30.30 6.96Q29.99 6.73 29.54 6.73L29.54 6.73L29.54 6.73Q28.46 6.73 28.08 7.53L28.08 7.53L28.08 7.53Q27.69 8.32 27.69 9.51L27.69 9.51L27.69 9.51Q27.69 10.68 28.22 11.44L28.22 11.44L28.22 11.44Q28.76 12.19 29.64 12.19L29.64 12.19L29.64 12.19Q30.24 12.19 30.67 11.94L30.67 11.94L30.67 11.94Q31.09 11.68 31.44 11.14L31.44 11.14L31.44 11.14Q31.49 11.07 31.58 11.07L31.58 11.07L31.58 11.07Q31.65 11.07 31.74 11.12L31.74 11.12L31.74 11.12Q31.81 11.14 31.85 11.21L31.85 11.21L31.85 11.21Q31.89 11.28 31.89 11.35L31.89 11.35L31.89 11.35Q31.89 11.40 31.85 11.47L31.85 11.47L31.85 11.47Q31.39 12.12 30.70 12.51L30.70 12.51L30.70 12.51Q30.02 12.89 29.32 12.89L29.32 12.89ZM35.36 12.96L35.36 12.96Q34.68 12.96 34.19 12.46L34.19 12.46L34.19 12.46Q33.70 11.96 33.70 11.02L33.70 11.02L33.70 6.90L32.89 6.93L32.89 6.93Q32.80 6.93 32.75 6.85L32.75 6.85L32.75 6.85Q32.69 6.78 32.69 6.68L32.69 6.68L32.69 6.68Q32.69 6.55 32.74 6.46L32.74 6.46L32.74 6.46Q32.79 6.37 32.89 6.36L32.89 6.36L32.89 6.36Q33.38 6.26 33.65 6.04L33.65 6.04L33.65 6.04Q33.92 5.82 34.05 5.57L34.05 5.57L34.05 5.57Q34.17 5.31 34.36 4.77L34.36 4.77L34.36 4.77Q34.43 4.59 34.66 4.59L34.66 4.59L34.66 4.59Q34.76 4.59 34.86 4.64L34.86 4.64L34.86 4.64Q34.96 4.69 34.96 4.79L34.96 4.79L34.86 6.38L36.50 6.29L36.53 6.29L36.53 6.29Q36.71 6.29 36.71 6.55L36.71 6.55L36.71 6.55Q36.71 6.71 36.66 6.84L36.66 6.84L36.66 6.84Q36.61 6.97 36.54 6.97L36.54 6.97L34.97 6.93L34.97 11.19L34.97 11.19Q34.97 11.65 35.16 11.96L35.16 11.96L35.16 11.96Q35.35 12.26 35.78 12.26L35.78 12.26L35.78 12.26Q36.22 12.26 36.55 12.11L36.55 12.11L36.55 12.11Q36.74 12.04 36.78 12.04L36.78 12.04L36.78 12.04Q36.88 12.04 36.93 12.12L36.93 12.12L36.93 12.12Q36.99 12.19 37.04 12.32L37.04 12.32L37.04 12.32Q37.06 12.35 37.06 12.39L37.06 12.39L37.06 12.39Q37.06 12.45 36.97 12.52L36.97 12.52L36.97 12.52Q36.57 12.78 36.21 12.87L36.21 12.87L36.21 12.87Q35.85 12.96 35.36 12.96L35.36 12.96ZM41.64 12.77L41.64 12.77Q41.51 12.77 41.45 12.68L41.45 12.68L41.45 12.68Q41.38 12.59 41.38 12.46L41.38 12.46L41.38 12.46Q41.40 12.25 41.47 12.21L41.47 12.21L41.47 12.21Q41.54 12.17 41.73 12.17L41.73 12.17L41.73 12.17Q42.14 12.17 42.33 12.02L42.33 12.02L42.33 12.02Q42.52 11.87 42.56 11.67L42.56 11.67L42.56 11.67Q42.60 11.47 42.62 11.09L42.62 11.09L42.64 5.53L42.64 5.53Q42.64 5.11 42.55 4.89L42.55 4.89L42.55 4.89Q42.46 4.68 42.27 4.58L42.27 4.58L42.27 4.58Q42.07 4.48 41.71 4.41L41.71 4.41L41.71 4.41Q41.47 4.37 41.41 4.33L41.41 4.33L41.41 4.33Q41.36 4.28 41.36 4.09L41.36 4.09L41.36 4.09Q41.36 3.92 41.45 3.86L41.45 3.86L41.45 3.86Q41.54 3.81 41.73 3.81L41.73 3.81L41.73 3.81Q42.60 3.81 43.11 3.93L43.11 3.93L43.11 3.93Q43.61 4.05 43.99 4.35L43.99 4.35L43.99 4.35Q44.38 4.66 44.84 5.29L44.84 5.29L48.68 10.33L48.72 10.33L48.69 5.53L48.69 5.53Q48.68 5.15 48.64 4.95L48.64 4.95L48.64 4.95Q48.59 4.75 48.41 4.60L48.41 4.60L48.41 4.60Q48.22 4.45 47.81 4.45L47.81 4.45L47.73 4.45L47.73 4.45Q47.59 4.45 47.52 4.40L47.52 4.40L47.52 4.40Q47.46 4.35 47.45 4.16L47.45 4.16L47.45 4.16Q47.45 4.03 47.52 3.94L47.52 3.94L47.52 3.94Q47.59 3.85 47.70 3.85L47.70 3.85L47.70 3.85Q48.59 3.89 49.04 3.89L49.04 3.89L49.04 3.89Q49.31 3.89 50.06 3.86L50.06 3.86L50.36 3.85L50.36 3.85Q50.48 3.85 50.55 3.94L50.55 3.94L50.55 3.94Q50.61 4.03 50.61 4.16L50.61 4.16L50.61 4.16Q50.60 4.37 50.53 4.41L50.53 4.41L50.53 4.41Q50.46 4.45 50.26 4.45L50.26 4.45L50.26 4.45Q49.85 4.45 49.66 4.60L49.66 4.60L49.66 4.60Q49.48 4.75 49.43 4.95L49.43 4.95L49.43 4.95Q49.39 5.15 49.38 5.53L49.38 5.53L49.35 12.59L49.35 12.59Q49.34 12.77 49 12.77L49 12.77L49 12.77Q48.73 12.77 48.59 12.59L48.59 12.59L43.32 5.53L43.27 5.53L43.30 11.09L43.30 11.09Q43.32 11.47 43.36 11.67L43.36 11.67L43.36 11.67Q43.40 11.87 43.59 12.02L43.59 12.02L43.59 12.02Q43.78 12.17 44.18 12.17L44.18 12.17L44.27 12.17L44.27 12.17Q44.41 12.17 44.47 12.22L44.47 12.22L44.47 12.22Q44.53 12.26 44.55 12.46L44.55 12.46L44.55 12.46Q44.55 12.59 44.48 12.68L44.48 12.68L44.48 12.68Q44.42 12.77 44.30 12.77L44.30 12.77L44.30 12.77Q43.40 12.73 42.94 12.73L42.94 12.73L42.94 12.73Q42.66 12.73 41.96 12.75L41.96 12.75L41.64 12.77ZM54.92 12.89L54.92 12.89Q53.97 12.89 53.23 12.44L53.23 12.44L53.23 12.44Q52.49 11.98 52.07 11.24L52.07 11.24L52.07 11.24Q51.66 10.49 51.66 9.65L51.66 9.65L51.66 9.65Q51.66 8.60 52.15 7.82L52.15 7.82L52.15 7.82Q52.64 7.04 53.40 6.63L53.40 6.63L53.40 6.63Q54.15 6.22 54.92 6.22L54.92 6.22L54.92 6.22Q55.87 6.22 56.62 6.67L56.62 6.67L56.62 6.67Q57.36 7.13 57.77 7.88L57.77 7.88L57.77 7.88Q58.18 8.62 58.18 9.46L58.18 9.46L58.18 9.46Q58.18 10.51 57.69 11.29L57.69 11.29L57.69 11.29Q57.19 12.07 56.43 12.48L56.43 12.48L56.43 12.48Q55.68 12.89 54.92 12.89L54.92 12.89ZM54.92 12.38L54.92 12.38Q55.87 12.38 56.31 11.56L56.31 11.56L56.31 11.56Q56.76 10.75 56.76 9.46L56.76 9.46L56.76 9.46Q56.76 8.26 56.30 7.50L56.30 7.50L56.30 7.50Q55.85 6.73 54.92 6.73L54.92 6.73L54.92 6.73Q53.96 6.73 53.52 7.53L53.52 7.53L53.52 7.53Q53.09 8.33 53.09 9.62L53.09 9.62L53.09 9.62Q53.09 10.82 53.54 11.60L53.54 11.60L53.54 11.60Q53.98 12.38 54.92 12.38L54.92 12.38ZM61.78 12.96L61.78 12.96Q61.10 12.96 60.61 12.46L60.61 12.46L60.61 12.46Q60.12 11.96 60.12 11.02L60.12 11.02L60.12 6.90L59.30 6.93L59.30 6.93Q59.22 6.93 59.16 6.85L59.16 6.85L59.16 6.85Q59.11 6.78 59.11 6.68L59.11 6.68L59.11 6.68Q59.11 6.55 59.16 6.46L59.16 6.46L59.16 6.46Q59.21 6.37 59.30 6.36L59.30 6.36L59.30 6.36Q59.79 6.26 60.07 6.04L60.07 6.04L60.07 6.04Q60.34 5.82 60.47 5.57L60.47 5.57L60.47 5.57Q60.59 5.31 60.77 4.77L60.77 4.77L60.77 4.77Q60.84 4.59 61.08 4.59L61.08 4.59L61.08 4.59Q61.18 4.59 61.28 4.64L61.28 4.64L61.28 4.64Q61.38 4.69 61.38 4.79L61.38 4.79L61.28 6.38L62.92 6.29L62.94 6.29L62.94 6.29Q63.13 6.29 63.13 6.55L63.13 6.55L63.13 6.55Q63.13 6.71 63.08 6.84L63.08 6.84L63.08 6.84Q63.03 6.97 62.96 6.97L62.96 6.97L61.39 6.93L61.39 11.19L61.39 11.19Q61.39 11.65 61.58 11.96L61.58 11.96L61.58 11.96Q61.77 12.26 62.20 12.26L62.20 12.26L62.20 12.26Q62.64 12.26 62.97 12.11L62.97 12.11L62.97 12.11Q63.15 12.04 63.20 12.04L63.20 12.04L63.20 12.04Q63.29 12.04 63.35 12.12L63.35 12.12L63.35 12.12Q63.41 12.19 63.46 12.32L63.46 12.32L63.46 12.32Q63.48 12.35 63.48 12.39L63.48 12.39L63.48 12.39Q63.48 12.45 63.39 12.52L63.39 12.52L63.39 12.52Q62.99 12.78 62.63 12.87L62.63 12.87L62.63 12.87Q62.27 12.96 61.78 12.96L61.78 12.96ZM67.91 12.89L67.91 12.89Q66.86 12.89 66.13 12.45L66.13 12.45L66.13 12.45Q65.39 12.00 65.02 11.23L65.02 11.23L65.02 11.23Q64.64 10.46 64.64 9.52L64.64 9.52L64.64 9.52Q64.64 8.69 65.02 7.93L65.02 7.93L65.02 7.93Q65.41 7.17 66.12 6.69L66.12 6.69L66.12 6.69Q66.84 6.22 67.76 6.22L67.76 6.22L67.76 6.22Q69.01 6.22 69.68 6.85L69.68 6.85L69.68 6.85Q70.35 7.49 70.45 8.57L70.45 8.57L70.45 8.57Q70.45 9.03 70.20 9.20L70.20 9.20L70.20 9.20Q69.94 9.37 69.47 9.37L69.47 9.37L66.07 9.37L66.07 9.37Q66.07 10.67 66.60 11.43L66.60 11.43L66.60 11.43Q67.14 12.19 68.28 12.19L68.28 12.19L68.28 12.19Q68.88 12.19 69.30 11.94L69.30 11.94L69.30 11.94Q69.72 11.68 70.10 11.06L70.10 11.06L70.10 11.06Q70.17 10.99 70.24 10.99L70.24 10.99L70.24 10.99Q70.34 10.99 70.41 11.05L70.41 11.05L70.41 11.05Q70.55 11.13 70.55 11.30L70.55 11.30L70.55 11.30Q70.55 11.38 70.52 11.42L70.52 11.42L70.52 11.42Q70.08 12.12 69.42 12.51L69.42 12.51L69.42 12.51Q68.75 12.89 67.91 12.89L67.91 12.89ZM66.07 8.83L68.35 8.83L68.35 8.83Q69.06 8.83 69.10 8.25L69.10 8.25L69.10 8.25Q69.10 7.60 68.75 7.15L68.75 7.15L68.75 7.15Q68.40 6.71 67.76 6.71L67.76 6.71L67.76 6.71Q67.05 6.71 66.58 7.27L66.58 7.27L66.58 7.27Q66.12 7.84 66.07 8.83L66.07 8.83Z"></path></g><!----><g data-v-d3f97b9e="" id="eee3ee04-02da-4448-8c44-ea60e3cbef64" transform="matrix(1,0,0,1,-5,-5)" stroke="none" fill="#B93284"><path clip-rule="evenodd" d="M95 65c0 16.57-13.43 30-30 30S35 81.57 35 65c0-16.564 13.43-30 30-30s30 13.436 30 30zm-6 0c0 13.254-10.746 24-24 24S41 78.254 41 65s10.746-24 24-24 24 10.746 24 24zM71 47c-1.652 0-3 1.348-3 3v15H56c-1.652 0-3 1.348-3 3s1.348 3 3 3h15c1.652 0 3-1.348 3-3V50c0-1.652-1.348-3-3-3zm-45-6h9.803a35.916 35.916 0 0 0-3.498 6H26v-6zm0 18h3.152a35.55 35.55 0 0 1 1.031-6H26v6zM65 5H11c-3.299 0-6 2.701-6 6v60c0 3.305 2.701 6 6 6h20.092a36.018 36.018 0 0 1-1.564-6H11V11h54v18c2.051 0 4.043.211 6 .539V11c0-3.299-2.701-6-6-6zM14 23h6v-6h-6v6zm0 24h6v-6h-6v6zm0-12h6v-6h-6v6zm48-18H26v6h36v-6zM26 35h15.246a36.084 36.084 0 0 1 9.387-6H26v6zM14 59h6v-6h-6v6z"></path></g><!----></svg>